<?xml version="1.0" encoding="utf-8"?>
<!-- Generator: Adobe Illustrator 27.7.0, SVG Export Plug-In . SVG Version: 6.00 Build 0)  -->
<svg version="1.1" id="Layer_1" xmlns="http://www.w3.org/2000/svg" xmlns:xlink="http://www.w3.org/1999/xlink" x="0px" y="0px"
	 viewBox="0 0 100 100" style="enable-background:new 0 0 100 100;" xml:space="preserve">
<style type="text/css">
	.st0{fill:#FFFFFF;}
</style>
<g>
	<path class="st0" d="M20.7,20.6c-16.2,16.2-16.2,42.5,0,58.7s42.5,16.2,58.7,0s16.2-42.5,0-58.7S36.8,4.4,20.7,20.6z M74.5,74.4
		c-13.5,13.5-35.5,13.5-49,0s-13.5-35.5,0-49s35.5-13.5,49,0S88,60.9,74.5,74.4z"/>
	<path class="st0" d="M50,30.2L50,30.2c-1.9,0-3.4,1.5-3.4,3.4v13h-13c-1.9,0-3.4,1.5-3.4,3.4s1.5,3.4,3.4,3.4h13v13
		c0,1.9,1.5,3.4,3.4,3.4c0.9,0,1.8-0.4,2.4-1c0.6-0.6,1-1.5,1-2.4v-13h13c0.9,0,1.8-0.4,2.4-1s1-1.5,1-2.4c0-1.9-1.5-3.4-3.4-3.4
		h-13v-13C53.4,31.7,51.9,30.2,50,30.2z"/>
</g>
</svg>
