<?xml version="1.0" encoding="utf-8"?>
<!-- Generator: Adobe Illustrator 27.9.0, SVG Export Plug-In . SVG Version: 6.00 Build 0)  -->
<svg version="1.1" id="Layer_1" xmlns="http://www.w3.org/2000/svg" xmlns:xlink="http://www.w3.org/1999/xlink" x="0px" y="0px"
	 viewBox="0 0 24 24" style="enable-background:new 0 0 24 24;" xml:space="preserve">
<style type="text/css">
	.st0{fill:#FFFFFF;}
</style>
<path class="st0" d="M6,14h12v-2H6V14z M6,11h12V9H6V11z M6,8h12V6H6V8z M22,22l-4-4H4c-0.5,0-1-0.2-1.4-0.6S2,16.5,2,16V4
	c0-0.5,0.2-1,0.6-1.4S3.5,2,4,2h16c0.6,0,1,0.2,1.4,0.6S22,3.4,22,4V22z M4,16h14.9l1.1,1.1V4H4V16z M4,16V4V16z"/>
</svg>
