<?xml version="1.0" encoding="utf-8"?>
<!-- Generator: Adobe Illustrator 27.7.0, SVG Export Plug-In . SVG Version: 6.00 Build 0)  -->
<svg version="1.1" id="Layer_1" xmlns="http://www.w3.org/2000/svg" xmlns:xlink="http://www.w3.org/1999/xlink" x="0px" y="0px"
	 viewBox="0 0 24 24" style="enable-background:new 0 0 24 24;" xml:space="preserve">
<style type="text/css">
	.st0{fill:#FFFFFF;}
</style>
<path class="st0" d="M12,20c-2.2,0-4.1-0.8-5.7-2.3C4.8,16.1,4,14.2,4,12s0.8-4.1,2.3-5.7S9.8,4,12,4c1.2,0,2.2,0.2,3.3,0.7
	s1.9,1.2,2.7,2V4h2v7h-7V9h4.2c-0.5-0.9-1.3-1.7-2.2-2.2C14.1,6.3,13.1,6,12,6c-1.7,0-3.1,0.6-4.2,1.8S6,10.3,6,12s0.6,3.1,1.8,4.2
	S10.3,18,12,18c1.3,0,2.4-0.4,3.5-1.1s1.8-1.7,2.2-2.9h2.1c-0.5,1.8-1.4,3.2-2.9,4.3C15.5,19.4,13.8,20,12,20z"/>
</svg>
